<?xml version="1.0" standalone="no"?>
<!DOCTYPE svg PUBLIC "-//W3C//DTD SVG 20010904//EN"
 "http://www.w3.org/TR/2001/REC-SVG-20010904/DTD/svg10.dtd">
<svg version="1.0" xmlns="http://www.w3.org/2000/svg"
 width="256.000000pt" height="256.000000pt" viewBox="0 0 256.000000 256.000000"
 preserveAspectRatio="xMidYMid meet">

<g transform="translate(0.000000,256.000000) scale(0.100000,-0.100000)"
fill="#000000" stroke="none">
<path d="M1744 2164 c-32 -19 -78 -53 -101 -76 -22 -22 -46 -37 -52 -34 -5 4
-51 10 -100 15 -414 38 -801 -194 -941 -563 -9 -24 2 -17 64 42 65 62 165 132
189 132 4 0 -16 -28 -46 -63 -88 -104 -149 -205 -201 -331 -42 -102 -69 -271
-59 -367 l6 -60 52 99 c29 55 67 121 86 147 l34 47 6 -111 c5 -102 9 -117 44
-188 64 -128 130 -185 348 -293 196 -99 285 -156 341 -222 20 -23 39 -38 43
-34 5 4 7 47 7 94 -2 146 -43 231 -198 412 -115 133 -139 166 -175 237 -84
167 -82 353 6 531 44 89 151 207 234 259 33 20 58 38 56 40 -2 1 -28 -5 -58
-16 -275 -94 -474 -339 -521 -642 l-13 -84 -7 55 c-8 63 4 171 28 250 28 95
84 188 163 272 116 124 242 200 389 234 53 13 95 15 199 10 l132 -7 39 39 c38
38 71 106 87 180 9 42 -5 42 -81 -4z"/>
<path d="M1893 2066 c-42 -20 -56 -33 -76 -73 -14 -26 -34 -59 -45 -73 l-20
-24 40 -45 c47 -55 101 -164 127 -263 11 -40 61 -161 110 -268 50 -107 91
-205 91 -218 0 -44 -49 -122 -85 -138 -75 -31 -130 -8 -166 70 -18 38 -45 68
-107 120 -58 48 -80 72 -72 80 17 17 12 21 -31 23 -103 6 -195 58 -244 137
-27 44 -30 58 -30 130 0 45 3 95 8 111 l7 30 -35 -39 c-81 -90 -115 -209 -97
-337 15 -101 44 -189 132 -387 78 -179 109 -284 112 -384 1 -37 6 -64 10 -60
4 4 15 36 24 72 27 106 15 243 -35 415 -39 132 -64 251 -55 267 3 4 23 -2 47
-12 23 -10 58 -21 78 -25 22 -4 66 -31 117 -71 64 -51 86 -76 105 -118 20 -42
35 -60 72 -81 42 -25 53 -27 107 -21 95 10 127 30 167 105 23 44 34 77 33 102
-1 22 -40 125 -97 257 -52 121 -95 232 -95 247 0 31 -58 168 -100 236 l-29 47
26 23 c30 28 83 134 83 167 0 28 -12 28 -77 -2z"/>
<path d="M1700 1650 c0 -22 52 -78 90 -97 58 -28 60 -28 60 2 0 38 -27 84 -53
89 -46 10 -97 14 -97 6z"/>
<path d="M2000 1111 c-14 -28 -13 -53 6 -79 l16 -23 12 23 c7 13 18 33 26 44
7 12 10 29 7 38 -9 22 -54 20 -67 -3z"/>
</g>
</svg>
